<?xml version="1.0" encoding="iso-8859-1"?>
<!-- Generator: Adobe Illustrator 19.0.0, SVG Export Plug-In . SVG Version: 6.00 Build 0)  -->
<svg version="1.1" id="Capa_1" xmlns="http://www.w3.org/2000/svg" xmlns:xlink="http://www.w3.org/1999/xlink" x="0px" y="0px"
	 viewBox="0 0 449.505 449.505" style="enable-background:new 0 0 449.505 449.505;" xml:space="preserve">
<g>
	<path style="fill:#00EFD1;" d="M247.218,382.632h-44.931c-4.328,0-7.837-3.509-7.837-7.837v-63.739h-63.216
		c-4.028,0.3-7.537-2.723-7.837-6.752c-0.027-0.361-0.027-0.724,0-1.085v-44.408c0-4.328,3.509-7.837,7.837-7.837l0,0h63.216
		v-63.739c0-4.328,3.509-7.837,7.837-7.837h44.931c4.328,0,7.837,3.509,7.837,7.837v63.739h63.216c4.328,0,7.837,3.509,7.837,7.837
		l0,0v44.408c0.3,4.028-2.723,7.537-6.751,7.837c-0.361,0.027-0.724,0.027-1.085,0h-63.216v63.739
		C255.055,379.123,251.546,382.632,247.218,382.632z M210.124,366.958h29.257v-63.739c0-4.328,3.509-7.837,7.837-7.837h63.216
		v-28.735h-63.216c-4.328,0-7.837-3.509-7.837-7.837v-63.739h-29.257v63.739c0,4.328-3.509,7.837-7.837,7.837h-63.216v28.735h63.216
		c4.328,0,7.837,3.509,7.837,7.837V366.958z"/>
	<path style="fill:#00ACEA;" d="M380.965,449.505H68.54c-4.328,0-7.837-3.509-7.837-7.837V224.852H15.773
		c-3.126-0.076-5.947-1.89-7.314-4.702c-1.131-3.025-0.531-6.426,1.567-8.882l208.98-208.98c3.224-3.052,8.27-3.052,11.494,0
		l79.935,80.457V46.175c0-4.328,3.509-7.837,7.837-7.837l0,0h37.616c4.328,0,7.837,3.509,7.837,7.837l0,0v89.861l75.755,75.233
		c2.099,2.455,2.699,5.856,1.567,8.882c-1.367,2.812-4.189,4.626-7.314,4.702h-44.931v216.816
		C388.802,445.997,385.293,449.505,380.965,449.505z M76.377,433.832h296.751V217.015c0-4.328,3.509-7.837,7.837-7.837h33.959
		l-64.261-64.261c-1.588-1.501-2.526-3.564-2.612-5.747V54.011h-21.943v47.543c0.209,3.206-1.698,6.174-4.702,7.314
		c-2.864,1.04-6.067,0.439-8.359-1.567l-88.294-88.294L34.581,209.179H68.54c4.328,0,7.837,3.509,7.837,7.837V433.832z"/>
</g>
<g>
</g>
<g>
</g>
<g>
</g>
<g>
</g>
<g>
</g>
<g>
</g>
<g>
</g>
<g>
</g>
<g>
</g>
<g>
</g>
<g>
</g>
<g>
</g>
<g>
</g>
<g>
</g>
<g>
</g>
</svg>
