<svg enable-background="new 0 0 508 508" height="512" viewBox="0 0 508 508" width="512" xmlns="http://www.w3.org/2000/svg"><g fill="#fff"><path d="m178.142 32.8h16.4v49.2h-16.4z"/><path d="m227.342 32.8h16.4v49.2h-16.4z"/><path d="m276.542 32.8h16.4v49.2h-16.4z"/><path d="m129.042 32.8h16.4v49.2h-16.4z"/><path d="m79.842 32.8h16.4v49.2h-16.4z"/><path d="m104.442 319.5v-32.7h-16.4v32.7h-32.8v16.4h32.8v32.8h16.4v-32.8h32.8v-16.4z"/><path d="m475.842 342.4c-10.5-11.5-24.6-18.8-39.6-22.6-14.6-19.9-42-32.9-69.7-32.9v-98.4c0-22.6-18.4-41-41-41h-8.2v-32.8h8.2c13.6 0 24.6-11 24.6-24.6v-65.5c0-13.6-11-24.6-24.6-24.6h-278.5c-13.5 0-24.5 11-24.5 24.6v65.5c0 13.6 11 24.6 24.6 24.6h8.2v32.8h-8.3c-22.6 0-41 18.4-41 41v278.5c0 22.6 18.4 41 41 41h278.6c19.7 0 36.2-14 40.1-32.5 13.3 12 69 30.8 110.1-10.4 21.7-21.6 45.9-72.3 0-122.7zm-49-8c8.8 12.4 26.5 48.1-2.6 88.5l-103.6-103.6c62.8-42.3 103.8 11.7 106.2 15.1zm-379.8-236.1c-4.5 0-8.2-3.7-8.2-8.2v-65.5c0-4.5 3.7-8.2 8.2-8.2h278.6c4.5 0 8.2 3.7 8.2 8.2v65.5c0 4.5-3.7 8.2-8.2 8.2zm254 16.4v32.8h-229.4v-32.8zm-278.5 155.7h147.5v114.7h-147.5zm303.1 221.2h-278.6c-13.6 0-24.6-11-24.6-24.6v-65.5h163.9v-147.5h-163.8v-65.5c0-13.6 11-24.6 24.6-24.6h278.6c13.6 0 24.6 11 24.6 24.6v99.9c-17.4 3.2-34 11.4-47.3 24.8-44.8 44.8-25.4 102.6 0 127.5 22.8 22.3 47.3 24.8 47.3 24.8.6 14.1-11.1 26.1-24.7 26.1zm-11.1-62.6c-16.2-16.2-36.6-57.1-5.5-98.2l103.6 103.6c-28.9 23.2-71.4 21.4-98.1-5.4zm149.5 24.7c-32.6 32.3-73.1 17.3-83.2 11.8 18-2.8 35.4-11 49.4-24.8 17.1-16.9 26.6-39.5 26.7-63.6.1-11.7-2.1-23.1-6.3-33.6 5 3 9.9 6.4 14 10.7 38.6 41.3 12.8 86.2-.6 99.5z"/></g></svg>