<svg enable-background="new 0 0 508 508" height="512" viewBox="0 0 508 508" width="512" xmlns="http://www.w3.org/2000/svg"><g fill="#fff"><path d="m335.2 238.4c.1-.3 41.7-55.1 41.7-115.5 0-67.8-55.1-122.9-122.9-122.9s-122.9 55.1-122.9 122.9c0 62.1 41.6 115.3 41.7 115.5-83.7 37.2-131.8 127.1-115.2 218.2l9.3 51.4h374.2l9.3-51.4c16.6-91.1-31.5-181-115.2-218.2zm-81.2-222c43.1 0 80.2 25.7 96.9 62.6-36.3 27.9-82.5-3.5-82.5-3.5-29-16.9-65.4-15.4-92.8 3.9l-24.8 17.4c11.8-46.1 53.5-80.4 103.2-80.4zm-106.5 106.5c0-1.3.1-2.6.2-3.9l37.4-26.3c22.2-15.6 51.7-16.9 75.1-3.2 0 0 48.5 35 96.4 5.3 2.4 8.9 3.9 18.3 3.9 28 0 58.2-47.7 147.5-106.5 147.5s-106.5-89.2-106.5-147.4zm286.8 330.8-6.9 37.9h-346.8l-6.9-37.9c-15.5-85.2 30.8-169.2 110.4-202 19.6 21 43.5 35.1 70 35.1s50.4-14.1 70-35.1c79.4 32.8 125.7 116.8 110.2 202z"/><path d="m360.5 352.3v-32.8h-49.2v32.8h-32.8v49.2h32.8v32.8h49.2v-32.8h32.8v-49.2zm16.4 32.8h-32.8v32.8h-16.4v-32.8h-32.7v-16.4h32.8v-32.8h16.4v32.8h32.7z"/></g></svg>