<svg enable-background="new 0 0 508 508" height="512" viewBox="0 0 508 508" width="512" xmlns="http://www.w3.org/2000/svg"><g fill="#fff"><path d="m172.6 48s-170.9 197.2-170.9 289.1c0 94.2 76.7 170.9 170.9 170.9s170.9-76.7 170.9-170.9c0-91.9-170.9-289.1-170.9-289.1zm0 443.7c-85.3 0-154.6-69.3-154.6-154.6 0-76.1 125.2-229.2 154.6-264.2 29.5 35 154.6 188 154.6 264.2 0 85.3-69.3 154.6-154.6 154.6z"/><path d="m50.5 328.9h-16.2c0 71.8 58.4 130.2 130.2 130.2v-16.3c-62.9.1-114-51-114-113.9z"/><path d="m351.7 0s-56.1 56.5-97.5 113.8l13.2 9.5c32.4-44.9 70.1-85.3 84.3-100.1 26.8 28 138.3 148.5 138.3 216.2 0 72.3-56.5 132.9-128.7 137.9l1.1 16.2c80.7-5.6 143.9-73.3 143.9-154.1 0-83.3-154.6-239.4-154.6-239.4z"/></g></svg>