<svg enable-background="new 0 0 508.196 508.196" height="512" viewBox="0 0 508.196 508.196" width="512" xmlns="http://www.w3.org/2000/svg"><g fill="#fff"><path d="m450.796 359.452c-23.4-2.9-41.5-22.1-43.1-45.6 0 0 1.6-41.4-40-60.3l-38.9-16.7c25.2-39 2.6-109.8-56-168.4-63.3-63.5-141.3-84.9-177.4-48.8s-14.7 114.1 48.8 177.5c29.6 29.6 63.9 51.2 96.6 60.8 12.2 3.6 50.9 13 76.8-8.3l43.9 18.8c32.1 14.9 30.1 46.4 30.1 46.4 2.1 31.3 26.2 56.9 57.4 60.8 23 2.9 40.6 21 42.9 44l16.3-1.6c-3.3-30.6-26.8-54.7-57.4-58.6zm-140.7-125.1c-13.4 13.5-36.5 16.3-64.8 8-30.1-8.8-61.9-29-89.6-56.7-55.1-55.1-77.4-125.8-48.8-154.4 33.1-33.1 110.8 5.1 154.4 48.7 55.1 55.1 77.4 125.8 48.8 154.4z"/><path d="m275.396 459.452c-16.1-2-28.5-15.2-29.6-31.4 0 0 1.5-31.4-30.6-46l-26.2-11.2c16.8-29.8 0-81.3-42.6-123.8-21.9-21.9-47.4-38-71.6-45.1-25.9-7.6-47.8-4.3-61.4 9.4-13.7 13.7-17 35.5-9.4 61.4 7.1 24.2 23.1 49.7 45.1 71.6s47.4 38 71.6 45.1c9.1 2.7 37.5 9.8 56.9-5.7l31.2 13.4c21.2 9.8 20.7 32.1 20.7 32.1 1.6 24 20.1 43.6 43.9 46.5 15.8 2 27.9 14.4 29.5 30.3l16.3-1.6c-2.4-23.6-20.4-42.1-43.8-45zm-104.9-90.9c-9.2 9.2-25.2 11.1-45.2 5.2-21.6-6.4-44.6-20.9-64.7-40.9-20-20-34.6-43-40.9-64.7-5.9-19.9-4-36 5.2-45.2 13.9-13.9 37.6-7.5 45.3-5.2 21.6 6.4 44.6 20.9 64.6 40.9 39.5 39.5 55.8 89.8 35.7 109.9z"/></g></svg>