<svg enable-background="new 0 0 508 508" height="512" viewBox="0 0 508 508" width="512" xmlns="http://www.w3.org/2000/svg"><g fill="#fff"><path d="m280.55 0c-117.5 0-213 95.6-213 213v6.6l-53.1 132.7h53.1v49.2c0 22.6 18.4 41 41 41h24.5v65.5h254v-10.1c0-52.2 20-104.5 56.2-147.4 32.4-38.3 50.3-87.2 50.3-137.4.1-117.5-95.5-213.1-213-213.1zm16.5 491.7h-147.6v-65.5h-40.9v-.1c-13.6 0-24.6-11-24.6-24.6v-8.2h155.7c31.6 0 57.4 25.7 57.4 57.4zm133.8-151.8c-37.3 44.1-58.5 97.8-60 151.7h-57.4v-41c0-40.7-33.1-73.7-73.7-73.7h-155.8v-41h-45.3l45.3-113.1v-9.8c0-108.4 88.2-196.6 196.6-196.6s196.7 88.2 196.7 196.6c0 46.5-16.5 91.5-46.4 126.9z"/><path d="m264.15 65.8v16.4c81.2 0 147.2 66 147.2 147.2h16.4c0-90.2-73.4-163.6-163.6-163.6z"/></g></svg>