<svg enable-background="new 0 0 508 508" height="512" viewBox="0 0 508 508" width="512" xmlns="http://www.w3.org/2000/svg"><g fill="#fff"><path d="m495.4 21.789c-8.1-8.1-33.7-24.4-60.8 0l-434.6 434.6 12.6 4.2c18 6 36.5 8.9 55 8.9 38.3 0 76-12.7 107.3-37.2l189.8-161.8-28.6-28.5 159.3-159.4c16.8-16.8 16.8-44.1 0-60.8zm-11.6 49.2-171 171 27.6 27.6-176 150c-38 29.8-87.1 40.3-133.5 29.1l415.3-415.3c10-10 27.5-10 37.6 0 10.4 10.4 10.4 27.2 0 37.6z"/><path d="m508 453.089h-328.8v16.4h45.2l22.2 29.6 13.2-9.9-14.8-19.7h53.4l22.2 29.6 13.1-9.9-14.8-19.7h53.5l22.2 29.6 13.1-9.9-14.8-19.7h53.5l22.1 29.6 13.2-9.9-14.8-19.7h41.1z"/><path d="m453.5 47.904h16.4v16.4h-16.4z" transform="matrix(.7071 -.7071 .7071 .7071 95.5568 342.9024)"/><path d="m430.24 71.083h16.4v16.4h-16.4z" transform="matrix(.7071 -.7071 .7071 .7071 72.3545 333.2451)"/><path d="m406.99 94.404h16.4v16.4h-16.4z" transform="matrix(.7071 -.7071 .7071 .7071 49.0545 323.6352)"/></g></svg>