<svg enable-background="new 0 0 508 508" height="512" viewBox="0 0 508 508" width="512" xmlns="http://www.w3.org/2000/svg"><g fill="#fff"><path d="m99.6 366.4v-25c0-14.3-10.6-26-24.4-28v-61.4c0-20.2-16.4-36.6-36.6-36.6s-36.6 16.4-36.6 36.6v153.7l73.2 73.2v29.1h16.3v-35.9l-73.2-73.1v-147c0-11.2 9.1-20.3 20.3-20.3s20.3 9.1 20.3 20.3v63.8c-9.6 4.6-16.3 14.3-16.3 25.6v36.6h16.3v-36.6c0-6.7 5.5-12.2 12.2-12.2s12.2 5.5 12.2 12.2v31.8l56.9 56.9v77.9h16.3v-84.7z"/><path d="m469.4 215.4c-20.2 0-36.6 16.4-36.6 36.6v61.4c-13.8 2-24.4 13.7-24.4 28v25.1l-56.9 56.9v84.6h16.3v-77.9l56.9-56.9v-31.8c0-6.7 5.5-12.2 12.2-12.2s12.2 5.5 12.2 12.2v36.6h16.3v-36.6c0-11.3-6.7-21-16.3-25.6v-63.8c0-11.2 9.1-20.3 20.3-20.3s20.3 9.1 20.3 20.3v147l-73.2 73.2v35.8h16.3v-29.1l73.2-73.2v-153.7c0-20.2-16.4-36.6-36.6-36.6z"/><path d="m254 0s-130.1 142.8-130.1 215.4c0 71.7 58.3 130.1 130.1 130.1s130.1-58.3 130.1-130.1c0-73.1-130.1-215.4-130.1-215.4zm0 329.2c-62.7 0-113.8-51.1-113.8-113.8 0-55.1 89.4-162.6 113.8-190.9 24.4 28.3 113.8 135.8 113.8 190.9 0 62.7-51.1 113.8-113.8 113.8z"/><path d="m180.8 215.4h-16.3c0 49.3 40.1 89.4 89.4 89.4v-16.3c-40.2 0-73.1-32.8-73.1-73.1z"/><path d="m245.9 386.1h16.3v16.3h-16.3z"/><path d="m278.4 386.1h16.3v16.3h-16.3z"/><path d="m213.4 386.1h16.3v16.3h-16.3z"/></g></svg>