<svg enable-background="new 0 0 508.1 508.1" height="512" viewBox="0 0 508.1 508.1" width="512" xmlns="http://www.w3.org/2000/svg"><g fill="#fff"><path d="m254.1 139.35c-63.2 0-114.7 51.4-114.7 114.7s51.5 114.7 114.7 114.7 114.7-51.5 114.7-114.7-51.4-114.7-114.7-114.7zm0 213c-54.2 0-98.3-44.1-98.3-98.3s44.1-98.3 98.3-98.3 98.3 44.1 98.3 98.3-44 98.3-98.3 98.3z"/><path d="m188.6 254.05h16.4c0-27.1 22-49.2 49.2-49.2v-16.4c-36.2.1-65.6 29.5-65.6 65.6z"/><path d="m467.1 426.05c-8.3 0-16.1 2.5-22.6 6.8l-69.1-69.1c26.3-29.1 42.5-67.5 42.5-109.7s-16.2-80.6-42.5-109.7l34.2-34.2c10.3 7.9 23.2 12.6 37.1 12.6 33.8 0 61.4-27.5 61.4-61.3s-27.5-61.4-61.4-61.4c-33.8 0-61.3 27.5-61.3 61.3 0 14 4.7 26.8 12.6 37.1l-34.2 34.2c-29.1-26.3-67.5-42.5-109.7-42.5-50.5 0-95.7 23-125.7 59l-52-47.9c3.5-6 5.6-12.9 5.6-20.3 0-22.6-18.3-41-41-41-22.6 0-41 18.3-41 41 0 22.6 18.3 41 41 41 9.3 0 17.7-3.2 24.6-8.4l52.8 48.7c-17.7 26.2-28.1 57.8-28.1 91.8 0 90.3 73.5 163.8 163.8 163.8 42.2 0 80.6-16.2 109.7-42.5l69.1 69.1c-4.3 6.5-6.8 14.2-6.8 22.6 0 22.6 18.4 41 41 41s41-18.4 41-41-18.4-41-41-41zm-20.4-409.6c24.8 0 45 20.2 45 45s-20.2 45-45 45-45-20.2-45-45 20.3-45 45-45zm-405.6 89.1c-13.6 0-24.6-11-24.6-24.6s11-24.6 24.6-24.6 24.6 11 24.6 24.6-11.1 24.6-24.6 24.6zm213 296c-81.3 0-147.5-66.1-147.5-147.5s66.2-147.5 147.5-147.5 147.5 66.2 147.5 147.5-66.1 147.5-147.5 147.5zm213 90.1c-13.6 0-24.6-11-24.6-24.6s11-24.6 24.6-24.6 24.6 11 24.6 24.6-11 24.6-24.6 24.6z"/></g></svg>