<svg enable-background="new 0 0 477.61 477.61" viewBox="0 0 477.61 477.61" xmlns="http://www.w3.org/2000/svg"><path d="m270.205 446.243h-10.449c-4.028.3-7.537-2.723-7.837-6.751-.027-.361-.027-.724 0-1.085 0-4.328 3.509-7.837 7.837-7.837h10.449c4.328 0 7.837 3.509 7.837 7.837s-3.509 7.836-7.837 7.836z" fill="#00acea"/><path d="m270.205 477.589h-10.449c-4.028.3-7.537-2.723-7.837-6.752-.027-.361-.027-.724 0-1.085 0-4.328 3.509-7.837 7.837-7.837h10.449c4.328 0 7.837 3.509 7.837 7.837s-3.509 7.837-7.837 7.837z" fill="#00acea"/><g fill="#edb288"><path d="m170.94 240.398c-15.87 0-28.735-12.865-28.735-28.735v-5.224c0-4.328 3.509-7.837 7.837-7.837s7.837 3.509 7.837 7.837v5.224c0 7.214 5.848 13.061 13.061 13.061 7.214 0 13.061-5.848 13.061-13.061v-5.224c0-4.328 3.509-7.837 7.837-7.837s7.837 3.509 7.837 7.837v5.224c0 15.87-12.865 28.735-28.735 28.735z"/><path d="m275.43 240.398c-15.87 0-28.735-12.865-28.735-28.735v-5.224c0-4.328 3.509-7.837 7.837-7.837s7.837 3.509 7.837 7.837v5.224c0 7.214 5.848 13.061 13.061 13.061s13.061-5.848 13.061-13.061v-5.224c0-4.328 3.509-7.837 7.837-7.837s7.837 3.509 7.837 7.837v5.224c-.001 15.87-12.865 28.735-28.735 28.735z"/><path d="m376.785 219.5c.572-14.759-9.58-27.78-24.033-30.824v-38.661c0-4.328-3.509-7.837-7.837-7.837s-7.837 3.509-7.837 7.837v62.694c0 63.479-51.46 114.939-114.939 114.939s-114.939-51.46-114.939-114.939v-60.082c0-4.328-3.509-7.837-7.837-7.837s-7.837 3.509-7.837 7.837v36.049c-10.449 3.657-23.51 16.196-23.51 30.824-.055 16.917 12.917 31.028 29.78 32.392 12.235 37.634 40.568 67.881 77.322 82.547v24.555c0 4.328 3.509 7.837 7.837 7.837s7.837-3.509 7.837-7.837v-19.853c10.238 2.673 20.766 4.077 31.347 4.18 12.373-.048 24.68-1.806 36.571-5.224v20.898c0 4.328 3.509 7.837 7.837 7.837s7.837-3.509 7.837-7.837v-26.645c35.102-14.495 61.786-44.059 72.62-80.457 16.863-1.366 29.836-15.476 29.781-32.393zm-293.094 0c-.083-5.761 2.901-11.133 7.837-14.106v7.314c.154 7.529.853 15.037 2.09 22.465-5.991-2.944-9.826-8.999-9.927-15.673zm267.494 15.673c1.06-7.441 1.584-14.949 1.567-22.465v-7.314c5.059 2.919 8.228 8.267 8.359 14.106-.101 6.674-3.935 12.729-9.926 15.673z"/></g><path d="m441.569 87.32c-3.293-13.187-10.817-24.932-21.42-33.437-1.049-1.328-2.526-2.251-4.18-2.612l-3.135-2.612c-25.939-15.905-59.528-11.075-79.935 11.494-39.211-60.891-120.36-78.466-181.25-39.255-36.878 23.748-59.441 64.361-60.121 108.218v22.988c.272 3.656 2.763 6.769 6.269 7.837 19.229 4.147 38.843 6.248 58.514 6.269 42.841 0 99.265-10.449 135.314-59.559 10.363 22.692 28.018 41.266 50.155 52.767 2.536 1.14 5.474.944 7.837-.522 9.239 4.676 19.425 7.178 29.78 7.314 5.263-.005 10.513-.53 15.673-1.567 16.382-4.259 30.446-14.76 39.184-29.257 8.92-14.344 11.564-31.719 7.315-48.066zm-16.719-.522-72.098 49.11v-6.792c.087-4.708-.088-9.417-.522-14.106l60.604-46.498c5.239 5.189 9.332 11.418 12.016 18.286zm-56.424-30.825c10.495-2.634 21.581-1.526 31.347 3.135l-50.155 38.661c-2.153-8.048-4.948-15.91-8.359-23.51 6.571-9.154 16.212-15.643 27.167-18.286zm-244.506 15.151 16.196 1.045c31.347 0 75.233-9.927 113.894-53.29 8.308 2.539 16.355 5.863 24.033 9.927-55.38 87.249-141.061 76.8-166.139 71.576 2.591-10.275 6.638-20.127 12.016-29.258zm99.265-56.424h12.539c-26.196 27.813-63.182 42.874-101.355 41.273 22.015-26.254 54.553-41.375 88.816-41.273zm113.894 123.82c-16.425-13.277-28.894-30.806-36.049-50.678-.718-3.117-3.152-5.551-6.269-6.269-3.471-.171-6.8 1.396-8.882 4.18-47.02 81.502-152.555 65.306-178.678 60.082v-16.718c.264-4.554.787-9.089 1.567-13.584 11.717 2.165 23.612 3.214 35.527 3.135 41.273 0 103.445-13.061 146.808-81.502 13.824 10.515 25.227 23.878 33.437 39.184.143.782.505 1.507 1.045 2.09 7.598 15.812 11.527 33.135 11.494 50.678zm83.592-10.971c-6.452 10.805-17.008 18.534-29.257 21.42-9.114 2.542-18.794 2.177-27.69-1.045l63.739-43.886c-.15 8.299-2.493 16.411-6.792 23.511z" fill="#00acea"/><path d="m327.675 350.634h-60.604c-2.139.161-4.076 1.323-5.224 3.135l-37.617 36.571-35.004-36.571c-1.149-1.811-3.086-2.973-5.225-3.135h-60.081c-50.678 0-89.861 42.841-89.861 92.996v26.122c0 4.328 3.509 7.837 7.837 7.837s7.837-3.509 7.837-7.837v-26.122c0-41.796 32.392-77.322 74.188-77.322h56.424l36.571 38.661v64.784c0 4.328 3.509 7.837 7.837 7.837s7.837-3.509 7.837-7.837v-64.261l37.616-39.184h57.469c42.469.563 76.76 34.854 77.322 77.322v26.122c0 4.328 3.509 7.837 7.837 7.837s7.837-3.509 7.837-7.837v-26.122c-.839-51.009-41.988-92.157-92.996-92.996z" fill="#00acea"/></svg>