<?xml version="1.0" encoding="iso-8859-1"?>
<!-- Generator: Adobe Illustrator 19.0.0, SVG Export Plug-In . SVG Version: 6.00 Build 0)  -->
<svg version="1.1" id="Capa_1" xmlns="http://www.w3.org/2000/svg" xmlns:xlink="http://www.w3.org/1999/xlink" x="0px" y="0px"
	 viewBox="0 0 477.61 477.61" style="enable-background:new 0 0 477.61 477.61;" xml:space="preserve">
<g>
	<g>
		<path style="fill:#00ACEA;" d="M270.205,446.243h-10.449c-4.028,0.3-7.537-2.723-7.837-6.751c-0.027-0.361-0.027-0.724,0-1.085
			c0-4.328,3.509-7.837,7.837-7.837h10.449c4.328,0,7.837,3.509,7.837,7.837S274.533,446.243,270.205,446.243z"/>
		<path style="fill:#00ACEA;" d="M270.205,477.589h-10.449c-4.028,0.3-7.537-2.723-7.837-6.752c-0.027-0.361-0.027-0.724,0-1.085
			c0-4.328,3.509-7.837,7.837-7.837h10.449c4.328,0,7.837,3.509,7.837,7.837S274.533,477.589,270.205,477.589z"/>
	</g>
	<g>
		<path style="fill:#EDB288;" d="M170.94,240.398c-15.87,0-28.735-12.865-28.735-28.735v-5.224c0-4.328,3.509-7.837,7.837-7.837
			c4.328,0,7.837,3.509,7.837,7.837v5.224c0,7.214,5.848,13.061,13.061,13.061c7.214,0,13.061-5.848,13.061-13.061v-5.224
			c0-4.328,3.509-7.837,7.837-7.837s7.837,3.509,7.837,7.837v5.224C199.675,227.533,186.81,240.398,170.94,240.398z"/>
		<path style="fill:#EDB288;" d="M275.43,240.398c-15.87,0-28.735-12.865-28.735-28.735v-5.224c0-4.328,3.509-7.837,7.837-7.837
			c4.328,0,7.837,3.509,7.837,7.837v5.224c0,7.214,5.848,13.061,13.061,13.061s13.061-5.848,13.061-13.061v-5.224
			c0-4.328,3.509-7.837,7.837-7.837c4.328,0,7.837,3.509,7.837,7.837v5.224C304.164,227.533,291.3,240.398,275.43,240.398z"/>
	</g>
	<path style="fill:#EDB288;" d="M376.785,219.5c0.572-14.759-9.58-27.78-24.033-30.824v-38.661c0-4.328-3.509-7.837-7.837-7.837
		s-7.837,3.509-7.837,7.837v62.694c0,63.479-51.46,114.939-114.939,114.939s-114.939-51.46-114.939-114.939v-60.082
		c0-4.328-3.509-7.837-7.837-7.837s-7.837,3.509-7.837,7.837v36.049c-10.449,3.657-23.51,16.196-23.51,30.824
		c-0.055,16.917,12.917,31.028,29.78,32.392c12.235,37.634,40.568,67.881,77.322,82.547v24.555c0,4.328,3.509,7.837,7.837,7.837
		s7.837-3.509,7.837-7.837v-19.853c10.238,2.673,20.766,4.077,31.347,4.18c12.373-0.048,24.68-1.806,36.571-5.224v20.898
		c0,4.328,3.509,7.837,7.837,7.837c4.328,0,7.837-3.509,7.837-7.837v-26.645c35.102-14.495,61.786-44.059,72.62-80.457
		C363.867,250.527,376.84,236.417,376.785,219.5z M83.691,219.5c-0.083-5.761,2.901-11.133,7.837-14.106v7.314
		c0.154,7.529,0.853,15.037,2.09,22.465C87.627,232.229,83.792,226.174,83.691,219.5z M351.185,235.173
		c1.06-7.441,1.584-14.949,1.567-22.465v-7.314c5.059,2.919,8.228,8.267,8.359,14.106
		C361.01,226.174,357.176,232.229,351.185,235.173z"/>
	<path style="fill:#00ACEA;" d="M441.569,87.32c-3.293-13.187-10.817-24.932-21.42-33.437l0,0c-1.049-1.328-2.526-2.251-4.18-2.612
		l-3.135-2.612c-25.939-15.905-59.528-11.075-79.935,11.494c-39.211-60.891-120.36-78.466-181.25-39.255
		c-36.878,23.748-59.441,64.361-60.121,108.218v22.988c0.272,3.656,2.763,6.769,6.269,7.837c19.229,4.147,38.843,6.248,58.514,6.269
		c42.841,0,99.265-10.449,135.314-59.559c10.363,22.692,28.018,41.266,50.155,52.767c2.536,1.14,5.474,0.944,7.837-0.522l0,0
		c9.239,4.676,19.425,7.178,29.78,7.314c5.263-0.005,10.513-0.53,15.673-1.567c16.382-4.259,30.446-14.76,39.184-29.257
		C443.174,121.042,445.818,103.667,441.569,87.32z M424.85,86.798l-72.098,49.11v-6.792c0.087-4.708-0.088-9.417-0.522-14.106
		l60.604-46.498C418.073,73.701,422.166,79.93,424.85,86.798z M368.426,55.973c10.495-2.634,21.581-1.526,31.347,3.135
		l-50.155,38.661c-2.153-8.048-4.948-15.91-8.359-23.51C347.83,65.105,357.471,58.616,368.426,55.973z M123.92,71.124l16.196,1.045
		c31.347,0,75.233-9.927,113.894-53.29c8.308,2.539,16.355,5.863,24.033,9.927c-55.38,87.249-141.061,76.8-166.139,71.576
		C114.495,90.107,118.542,80.255,123.92,71.124z M223.185,14.7h12.539c-26.196,27.813-63.182,42.874-101.355,41.273
		C156.384,29.719,188.922,14.598,223.185,14.7z M337.079,138.52c-16.425-13.277-28.894-30.806-36.049-50.678
		c-0.718-3.117-3.152-5.551-6.269-6.269c-3.471-0.171-6.8,1.396-8.882,4.18c-47.02,81.502-152.555,65.306-178.678,60.082v-16.718
		c0.264-4.554,0.787-9.089,1.567-13.584c11.717,2.165,23.612,3.214,35.527,3.135c41.273,0,103.445-13.061,146.808-81.502
		c13.824,10.515,25.227,23.878,33.437,39.184c0.143,0.782,0.505,1.507,1.045,2.09c7.598,15.812,11.527,33.135,11.494,50.678V138.52z
		 M420.671,127.549c-6.452,10.805-17.008,18.534-29.257,21.42c-9.114,2.542-18.794,2.177-27.69-1.045l63.739-43.886
		C427.313,112.337,424.97,120.449,420.671,127.549z"/>
</g>
<path style="fill:#00ACEA;" d="M327.675,350.634h-60.604c-2.139,0.161-4.076,1.323-5.224,3.135L224.23,390.34l-35.004-36.571
	c-1.149-1.811-3.086-2.973-5.225-3.135H123.92c-50.678,0-89.861,42.841-89.861,92.996v26.122c0,4.328,3.509,7.837,7.837,7.837
	s7.837-3.509,7.837-7.837V443.63c0-41.796,32.392-77.322,74.188-77.322h56.424l36.571,38.661v64.784
	c0,4.328,3.509,7.837,7.837,7.837c4.328,0,7.837-3.509,7.837-7.837v-64.261l37.616-39.184h57.469
	c42.469,0.563,76.76,34.854,77.322,77.322v26.122c0,4.328,3.509,7.837,7.837,7.837s7.837-3.509,7.837-7.837V443.63
	C419.832,392.621,378.683,351.473,327.675,350.634z"/>
<g>
</g>
<g>
</g>
<g>
</g>
<g>
</g>
<g>
</g>
<g>
</g>
<g>
</g>
<g>
</g>
<g>
</g>
<g>
</g>
<g>
</g>
<g>
</g>
<g>
</g>
<g>
</g>
<g>
</g>
</svg>
