<svg enable-background="new 0 0 495.264 495.264" viewBox="0 0 495.264 495.264" xmlns="http://www.w3.org/2000/svg"><path d="m134.252 352.122-3.135-1.045c-2.922-.941-4.85-3.725-4.702-6.792v-61.127h-30.302c-53.092-.009-96.123-43.056-96.113-96.148.01-53.078 43.035-96.103 96.113-96.113h151.51c53.091.01 96.123 43.057 96.113 96.148-.01 53.078-43.035 96.103-96.113 96.113h-44.408l-63.216 66.351c-1.501 1.589-3.564 2.527-5.747 2.613zm-38.139-245.551c-44.435.001-80.456 36.024-80.455 80.459.001 44.434 36.021 80.454 80.455 80.455h38.139c4.328 0 7.837 3.509 7.837 7.837v49.11l52.245-54.335c1.422-1.695 3.535-2.656 5.747-2.612h47.543c44.435-.022 80.439-36.062 80.417-80.497-.022-44.404-36.013-80.395-80.417-80.417z" fill="#00acea"/><g fill="#00efd1"><path d="m360.994 404.367c-2.183-.086-4.246-1.024-5.747-2.612l-63.216-66.351h-44.408c-18.59.115-36.788-5.344-52.245-15.673-3.578-2.43-4.711-7.189-2.612-10.971 2.406-3.598 7.273-4.564 10.871-2.158.034.023.067.045.101.069 13.08 8.458 28.31 12.991 43.886 13.061h47.543c2.212-.043 4.325.917 5.747 2.612l52.245 54.335v-49.11c0-4.328 3.509-7.837 7.837-7.837h38.139c44.435 0 80.457-36.022 80.457-80.457s-36.022-80.457-80.457-80.457h-36.571c-4.328 0-7.837-3.509-7.837-7.837s3.509-7.837 7.837-7.837h36.571c53.091 0 96.131 43.039 96.131 96.131s-43.039 96.131-96.131 96.131h-30.302v61.127c.148 3.066-1.78 5.851-4.702 6.792z"/><path d="m140.521 168.742c.052-4.272 1.32-8.44 3.657-12.016 2.81-4.334 6.797-7.778 11.494-9.927 5.129-2.786 10.882-4.224 16.718-4.18 5.625-.209 11.207 1.052 16.196 3.657 4.389 1.92 8.179 4.989 10.971 8.882 2.527 3.682 3.809 8.076 3.657 12.539.183 3.267-.54 6.522-2.09 9.404-1.443 2.479-3.199 4.761-5.224 6.792l-10.449 9.927-3.657 3.135-2.09 3.135c-.143.782-.505 1.507-1.045 2.09 0 1.045-.522 2.612-.522 4.702-.54 3.835-3.977 6.584-7.837 6.269-1.962.091-3.867-.671-5.224-2.09-1.667-1.661-2.606-3.916-2.612-6.269.082-3.24.792-6.434 2.09-9.404.877-2.544 2.304-4.863 4.18-6.792l7.314-6.792 5.747-5.224 3.135-4.18c1.998-4.466.95-9.707-2.612-13.061-2.762-2.372-6.286-3.67-9.927-3.657-3.658-.115-7.217 1.197-9.927 3.657-2.546 3.097-4.494 6.64-5.747 10.449-.278 4.03-3.769 7.072-7.8 6.794-.012-.001-.025-.002-.037-.003-2.129.176-4.228-.587-5.747-2.09-1.507-1.557-2.429-3.587-2.612-5.747zm30.824 68.963c-2.513.02-4.94-.913-6.792-2.612-2.128-1.587-3.307-4.143-3.135-6.792.061-2.6 1.196-5.059 3.135-6.792 1.787-1.801 4.259-2.751 6.792-2.612 4.905-.008 8.889 3.961 8.897 8.866 0 .179-.005.359-.015.538.297 2.555-.679 5.094-2.612 6.792-1.761 1.512-3.956 2.427-6.27 2.612z"/></g></svg>